<svg width="884" height="1027" viewBox="0 0 884 1027" fill="none" xmlns="http://www.w3.org/2000/svg">
<path d="M796.5 596.5C796.5 811.507 623.514 985.5 410.5 985.5C197.486 985.5 24.5 811.507 24.5 596.5C24.5 381.493 197.486 207.5 410.5 207.5C623.514 207.5 796.5 381.493 796.5 596.5Z" stroke="#FFD200" stroke-width="49"/>
<path d="M90.1498 451.385L96.1753 440.85L129.999 444.688L130.27 444.214L109.174 418.123L115.2 407.588L156.07 429.861L151.331 438.147L124.729 423.65L124.537 423.985L144.959 448.83L141.732 454.472L109.25 450.485L109.058 450.82L135.759 465.372L131.02 473.658L90.1498 451.385Z" fill="#FFD200"/>
<path d="M146.266 368.467L152.611 360.944L175.944 380.16C178.564 382.317 180.334 384.825 181.254 387.682C182.183 390.528 182.265 393.509 181.498 396.627C180.72 399.735 179.09 402.759 176.609 405.701C174.118 408.655 171.395 410.789 168.442 412.106C165.476 413.412 162.494 413.87 159.493 413.48C156.493 413.089 153.682 411.815 151.063 409.658L127.729 390.443L134.074 382.92L156.758 401.601C158.127 402.728 159.592 403.434 161.155 403.72C162.727 403.995 164.277 403.838 165.803 403.25C167.33 402.662 168.704 401.644 169.925 400.197C171.156 398.737 171.921 397.219 172.222 395.641C172.532 394.051 172.404 392.523 171.837 391.056C171.281 389.577 170.319 388.274 168.95 387.147L146.266 368.467Z" fill="#FFD200"/>
<path d="M174.213 340.223L191.685 346.157L191.961 345.921L188.794 327.759L197.242 320.538L201.609 347.421L227.814 355.639L219.21 362.993L201.602 357.144L201.326 357.38L204.422 375.633L195.853 382.958L191.762 355.838L165.73 347.473L174.213 340.223Z" fill="#FFD200"/>
<path d="M214.454 318.055L210.23 311.127L242.736 291.011L246.96 297.939L234.843 305.437L254.85 338.25L246.579 343.369L226.571 310.556L214.454 318.055Z" fill="#FFD200"/>
<path d="M283.744 322.593L274.01 326.65L271.595 277.236L283.301 272.357L315.359 309.417L305.625 313.474L281.557 284.606L281.222 284.746L283.744 322.593ZM276.357 305.853L299.349 296.271L302.196 303.406L279.203 312.988L276.357 305.853Z" fill="#FFD200"/>
<path d="M342.004 268.26C341.435 266.512 340.372 265.305 338.815 264.639C337.257 263.972 335.33 263.917 333.033 264.475C331.473 264.853 330.203 265.395 329.226 266.1C328.245 266.79 327.552 267.589 327.146 268.498C326.755 269.403 326.667 270.345 326.881 271.321C327.03 272.142 327.355 272.812 327.856 273.329C328.372 273.843 329.01 274.242 329.77 274.525C330.526 274.794 331.375 274.985 332.315 275.1C333.252 275.2 334.238 275.242 335.273 275.224L339.551 275.215C341.621 275.181 343.562 275.333 345.373 275.673C347.185 276.013 348.812 276.577 350.257 277.364C351.701 278.152 352.915 279.198 353.899 280.502C354.897 281.803 355.611 283.399 356.041 285.29C356.636 288.076 356.458 290.66 355.507 293.042C354.567 295.405 352.91 297.467 350.536 299.228C348.173 300.97 345.151 302.288 341.469 303.181C337.818 304.067 334.514 304.276 331.558 303.808C328.617 303.337 326.147 302.183 324.147 300.345C322.158 298.49 320.769 295.935 319.978 292.682L329.233 290.437C329.67 291.937 330.383 293.104 331.373 293.94C332.374 294.757 333.579 295.267 334.988 295.471C336.409 295.656 337.944 295.549 339.593 295.149C341.213 294.756 342.567 294.178 343.656 293.415C344.759 292.648 345.55 291.763 346.028 290.759C346.505 289.754 346.624 288.704 346.384 287.609C346.16 286.588 345.67 285.803 344.914 285.254C344.173 284.701 343.174 284.32 341.919 284.11C340.678 283.897 339.189 283.79 337.453 283.791L332.255 283.742C328.237 283.735 324.906 283.008 322.263 281.56C319.62 280.113 317.937 277.707 317.216 274.344C316.598 271.595 316.799 269.013 317.821 266.599C318.857 264.181 320.545 262.08 322.883 260.297C325.222 258.514 328.04 257.222 331.338 256.422C334.695 255.608 337.752 255.474 340.508 256.021C343.279 256.565 345.589 257.696 347.439 259.413C349.289 261.131 350.533 263.339 351.17 266.037L342.004 268.26Z" fill="#FFD200"/>
<path d="M369.092 296.255L366.721 249.77L376.532 249.003L377.511 268.183L397.427 266.627L396.449 247.448L406.237 246.683L408.608 293.168L398.82 293.933L397.84 274.73L377.924 276.286L378.903 295.488L369.092 296.255Z" fill="#FFD200"/>
<path d="M428.918 293.7L418.423 292.667L440.311 248.07L452.932 249.312L463.003 297.055L452.508 296.022L445.455 259.26L445.093 259.224L428.918 293.7ZM430.58 275.487L455.369 277.927L454.396 285.547L429.607 283.107L430.58 275.487Z" fill="#FFD200"/>
<path d="M486.925 255.061L498.549 258.549L501.035 291.933L501.558 292.09L523.627 266.074L535.251 269.561L520.678 313.767L511.535 311.023L521.02 282.251L520.65 282.14L499.699 307.235L493.473 305.367L491.386 273.241L491.016 273.13L481.494 302.01L472.352 299.266L486.925 255.061Z" fill="#FFD200"/>
<path d="M566.908 293.116L571.213 286.239L603.992 305.908L599.687 312.785L587.468 305.453L567.077 338.029L558.736 333.024L579.127 300.448L566.908 293.116Z" fill="#FFD200"/>
<path d="M593.117 356.001L585.144 349.1L628.125 324.747L637.714 333.048L619.013 378.418L611.039 371.516L626.011 336.984L625.736 336.746L593.117 356.001ZM604.738 341.864L623.571 358.167L618.483 363.922L599.65 347.619L604.738 341.864Z" fill="#FFD200"/>
<path d="M663.494 359.026L659.857 362.324C658.825 363.26 657.586 364.016 656.14 364.59C654.716 365.166 653.225 365.557 651.668 365.762C650.122 365.958 648.66 365.964 647.282 365.782L646.267 360.935C647.665 360.689 649.097 360.291 650.563 359.738C652.039 359.197 653.49 358.28 654.915 356.988L658.585 353.659L663.494 359.026Z" fill="#FFD200"/>
<path d="M634.767 396.551L671.929 368.525L677.845 376.388L647.161 399.529L659.158 415.475L652.68 420.361L634.767 396.551Z" fill="#FFD200"/>
<path d="M701.84 412.093L662.146 436.401L657.065 427.974L696.758 403.666L701.84 412.093Z" fill="#FFD200"/>
<path d="M710.623 426.307L715.351 437.485L691.72 461.884L691.933 462.387L725.552 461.598L730.28 472.775L687.676 491.52L683.957 482.729L711.687 470.528L711.536 470.172L679.321 471.188L676.789 465.201L699.722 441.953L699.572 441.597L671.738 453.843L668.019 445.052L710.623 426.307Z" fill="#FFD200"/>
<path d="M201.688 814.875L210.672 823.035L199.633 855.245L200.037 855.612L230.054 840.637L239.038 848.797L208.485 883.911L201.419 877.493L221.305 854.638L221.019 854.378L192.365 868.964L187.553 864.594L198.448 833.726L198.162 833.466L178.201 856.407L171.135 849.989L201.688 814.875Z" fill="#FFD200"/>
<path d="M230.806 898.869L221.836 893.324L259.327 861.786L270.114 868.455L259.938 916.879L250.969 911.334L259.431 874.354L259.122 874.163L230.806 898.869ZM239.609 882.805L260.797 895.903L256.865 902.502L235.678 889.404L239.609 882.805Z" fill="#FFD200"/>
<path d="M272.752 922.769L290.311 879.663L307.244 886.769C310.485 888.129 313.014 889.872 314.831 891.999C316.668 894.117 317.755 896.487 318.094 899.11C318.452 901.725 318.051 904.457 316.89 907.305C315.724 910.168 314.107 912.373 312.037 913.919C309.973 915.452 307.552 916.276 304.773 916.391C302.007 916.513 298.976 915.882 295.679 914.498L284.342 909.74L287.325 902.415L297.196 906.557C298.928 907.284 300.464 907.65 301.804 907.654C303.144 907.657 304.288 907.299 305.236 906.58C306.197 905.866 306.966 904.8 307.544 903.383C308.127 901.952 308.332 900.625 308.159 899.402C308 898.185 307.444 897.081 306.49 896.089C305.556 895.089 304.216 894.223 302.469 893.49L296.35 890.922L281.827 926.578L272.752 922.769ZM303.921 912.879L306.597 936.973L296.58 932.769L294.134 908.772L303.921 912.879Z" fill="#FFD200"/>
<path d="M351.817 914.905C352.086 913.082 351.676 911.508 350.586 910.183C349.496 908.858 347.806 907.904 345.515 907.321C343.959 906.925 342.59 906.811 341.407 906.979C340.229 907.132 339.258 907.518 338.494 908.137C337.744 908.759 337.249 909.555 337.006 910.525C336.774 911.326 336.767 912.075 336.983 912.771C337.214 913.471 337.605 914.125 338.155 914.734C338.709 915.329 339.379 915.898 340.164 916.442C340.953 916.971 341.812 917.471 342.741 917.942L346.551 919.943C348.408 920.885 350.067 921.933 351.527 923.086C352.988 924.24 354.186 925.506 355.122 926.886C356.057 928.265 356.673 929.767 356.97 931.39C357.282 933.017 357.209 934.773 356.753 936.658C356.047 939.418 354.743 941.634 352.84 943.308C350.956 944.97 348.568 946.027 345.675 946.479C342.8 946.92 339.527 946.673 335.856 945.739C332.215 944.812 329.183 943.446 326.761 941.641C324.353 939.84 322.667 937.652 321.703 935.077C320.757 932.491 320.653 929.564 321.393 926.297L330.621 928.646C330.345 930.187 330.462 931.561 330.972 932.769C331.5 933.967 332.346 934.987 333.509 935.831C334.691 936.663 336.104 937.289 337.749 937.707C339.364 938.118 340.825 938.24 342.132 938.073C343.454 937.909 344.55 937.492 345.42 936.822C346.29 936.153 346.862 935.274 347.134 934.186C347.387 933.172 347.3 932.243 346.871 931.399C346.456 930.559 345.737 929.75 344.713 928.974C343.704 928.201 342.426 927.407 340.881 926.591L336.279 924.106C332.707 922.212 330.067 920 328.357 917.47C326.647 914.94 326.217 912.008 327.067 908.675C327.736 905.938 329.061 903.734 331.04 902.065C333.034 900.399 335.467 899.322 338.338 898.834C341.209 898.345 344.289 898.519 347.578 899.356C350.926 900.208 353.705 901.525 355.914 903.307C358.138 905.093 359.692 907.185 360.576 909.583C361.459 911.981 361.587 914.531 360.958 917.232L351.817 914.905Z" fill="#FFD200"/>
<path d="M389.551 908.325L401.686 908.472L413.915 939.894L414.461 939.901L427.866 908.789L440.001 908.936L439.126 955.473L429.582 955.358L430.151 925.068L429.765 925.063L417.155 954.98L410.655 954.901L399.178 924.579L398.792 924.574L398.22 954.978L388.675 954.862L389.551 908.325Z" fill="#FFD200"/>
<path d="M465.918 951.863L455.549 953.785L463.533 904.971L476.003 902.66L499.594 945.619L489.225 947.542L471.732 914.268L471.375 914.334L465.918 951.863ZM462.198 933.947L486.69 929.406L487.98 936.979L463.488 941.52L462.198 933.947Z" fill="#FFD200"/>
<path d="M514.195 941.305L498.843 897.364L508.067 893.934L514.836 913.308L515.411 913.094L524.342 887.882L535.397 883.77L526.081 909.466L550.94 927.64L539.906 931.743L521.644 918.122L519.056 925.388L523.418 937.875L514.195 941.305Z" fill="#FFD200"/>
<path d="M544.173 887.315L540.3 880.185L573.465 861.175L577.338 868.304L564.975 875.391L583.32 909.162L574.88 913.999L556.536 880.228L544.173 887.315Z" fill="#FFD200"/>
<path d="M615.462 887.809L607.337 894.53L590.897 847.74L600.669 839.657L641.854 865.979L633.728 872.7L602.509 851.934L602.229 852.166L615.462 887.809ZM603.626 873.863L622.82 857.986L627.577 864.018L608.383 879.895L603.626 873.863Z" fill="#FFD200"/>
<path d="M653.566 854.094L619.017 822.904L631.208 808.809C633.449 806.219 635.694 804.399 637.944 803.349C640.194 802.298 642.365 801.942 644.457 802.279C646.537 802.607 648.443 803.552 650.175 805.115C651.525 806.334 652.474 807.68 653.021 809.154C653.558 810.618 653.736 812.125 653.555 813.677C653.374 815.207 652.887 816.707 652.097 818.177L652.434 818.481C653.65 817.191 655.107 816.271 656.804 815.722C658.511 815.161 660.3 815.072 662.171 815.456C664.032 815.829 665.811 816.782 667.509 818.315C669.342 819.97 670.577 821.911 671.214 824.139C671.849 826.346 671.805 828.724 671.081 831.274C670.357 833.825 668.855 836.418 666.575 839.054L653.566 854.094ZM654.032 841.26L659.28 835.192C661.074 833.118 661.995 831.255 662.041 829.603C662.077 827.941 661.442 826.522 660.138 825.344C659.182 824.481 658.135 823.954 656.998 823.764C655.86 823.574 654.707 823.727 653.537 824.222C652.378 824.706 651.283 825.543 650.252 826.735L644.855 832.975L654.032 841.26ZM639.912 828.513L644.684 822.995C645.567 821.975 646.175 820.912 646.511 819.807C646.845 818.68 646.884 817.593 646.628 816.545C646.382 815.487 645.804 814.546 644.893 813.724C643.644 812.597 642.246 812.141 640.698 812.356C639.16 812.559 637.678 813.486 636.251 815.136L631.359 820.791L639.912 828.513Z" fill="#FFD200"/>
<path d="M652.595 780.362L690.531 807.332L684.977 815.456L647.042 788.486L652.595 780.362Z" fill="#FFD200"/>
<path d="M642.463 429.294C603.813 372.324 546.377 330.974 480.338 312.575C414.299 294.176 343.923 299.916 281.685 328.777C219.448 357.639 169.371 407.758 140.332 470.249C111.292 532.739 105.166 603.565 123.04 670.17L146.28 663.847C129.89 602.771 135.507 537.825 162.136 480.521C188.765 423.218 234.685 377.26 291.756 350.794C348.827 324.328 413.361 319.065 473.918 335.937C534.475 352.809 587.143 390.726 622.584 442.967L642.463 429.294Z" fill="#FFD302"/>
<path d="M168.485 773.251C210.808 828.549 271.474 866.872 339.537 881.305C407.6 895.737 478.576 885.328 539.657 851.957C600.738 818.585 647.901 764.448 672.636 699.316C697.37 634.184 698.047 562.345 674.544 496.765L651.754 504.961C673.306 565.098 672.685 630.972 650.004 690.698C627.323 750.424 584.074 800.066 528.064 830.668C472.053 861.269 406.969 870.814 344.556 857.58C282.144 844.345 226.513 809.203 187.704 758.495L168.485 773.251Z" fill="#FFD200"/>
<ellipse cx="138.205" cy="681.389" rx="21.2046" ry="21.3888" fill="#FFD200"/>
<ellipse cx="656.319" cy="485.195" rx="22.7561" ry="20.3454" fill="#FFD200"/>
<path d="M242.629 430L242.629 665.223" stroke="#FFD200" stroke-width="20"/>
<line y1="-10" x2="50.6938" y2="-10" transform="matrix(0.999788 -0.0205811 0.0202283 0.999795 251.88 450.243)" stroke="#FFD200" stroke-width="20"/>
<path d="M293.977 435L397.209 582.75L497.543 439.81L641.007 439.5" stroke="#FFD200" stroke-width="20"/>
<path d="M641.007 429C642.479 428.5 651.622 449.461 651.622 449.461H631.019L632.172 438C632.172 438 639.534 429.5 641.007 429Z" fill="#FFD200"/>
<path d="M169.648 764.292L298.517 765.337" stroke="#FFD200" stroke-width="20"/>
<path d="M176.64 754.251L169.013 774.059L155.573 754.358L165.936 754.376L176.64 754.251Z" fill="#FFD200"/>
<path d="M288.577 758L290.152 512.323L393.072 659.957H402.381L506.336 511.279V748.643H555.985V508.149" stroke="#FFD200" stroke-width="20"/>
<ellipse cx="557.02" cy="490.412" rx="21.7218" ry="21.3888" fill="#FFD200"/>
<ellipse cx="243.605" cy="681.346" rx="21.7218" ry="21.3888" fill="#FFD200"/>
</svg>
